<svg width="36" height="36" viewBox="0 0 36 36" fill="none" xmlns="http://www.w3.org/2000/svg">
<g id="credit-card">
<path id="Vector" d="M4.5 15H31.5M10.5 22.5H12M18 22.5H19.5M9 28.5H27C28.1935 28.5 29.3381 28.0259 30.182 27.182C31.0259 26.3381 31.5 25.1935 31.5 24V12C31.5 10.8065 31.0259 9.66193 30.182 8.81802C29.3381 7.97411 28.1935 7.5 27 7.5H9C7.80653 7.5 6.66193 7.97411 5.81802 8.81802C4.97411 9.66193 4.5 10.8065 4.5 12V24C4.5 25.1935 4.97411 26.3381 5.81802 27.182C6.66193 28.0259 7.80653 28.5 9 28.5Z" stroke="#F7F7F7" stroke-width="2" stroke-linecap="round" stroke-linejoin="round"/>
</g>
</svg>
