<svg width="36" height="36" viewBox="0 0 36 36" fill="none" xmlns="http://www.w3.org/2000/svg">
<g id="desktop-computer">
<path id="Vector" d="M4.5 19.5H31.5M14.625 25.5L13.5 30L12 31.5H24L22.5 30L21.375 25.5H14.625ZM7.5 25.5H28.5C29.2956 25.5 30.0587 25.1839 30.6213 24.6213C31.1839 24.0587 31.5 23.2956 31.5 22.5V7.5C31.5 6.70435 31.1839 5.94129 30.6213 5.37868C30.0587 4.81607 29.2956 4.5 28.5 4.5H7.5C6.70435 4.5 5.94129 4.81607 5.37868 5.37868C4.81607 5.94129 4.5 6.70435 4.5 7.5V22.5C4.5 23.2956 4.81607 24.0587 5.37868 24.6213C5.94129 25.1839 6.70435 25.5 7.5 25.5Z" stroke="#F7F7F7" stroke-width="2" stroke-linecap="round" stroke-linejoin="round"/>
</g>
</svg>
